<svg width="500" height="500" viewBox="0 0 500 500" fill="none" xmlns="http://www.w3.org/2000/svg">
<style>
#freepik--Iceberg--inject-10{
  animation: iceberg 4s infinite linear;
  transform-origin: center;
  transform-box: fill-box;
}

@keyframes iceberg {
  0%,
  100% {
    transform: translateY(0);
  }
  50% {
    transform: translateY(-20px);
  }
}
</style>
<g id="Iceberg-cuate 1">
<g id="freepik--background-complete--inject-10">
<path id="Vector" d="M401.6 56.7199H290.26C290.26 56.7199 301.26 26.5699 318.26 26.5699C335.26 26.5699 340.6 47.3799 340.6 47.3799C340.6 47.3799 352.07 36.0699 361.48 36.0699C370.89 36.0699 379.08 51.0699 379.08 51.0699C379.08 51.0699 392.39 42.9999 401.6 56.7199Z" fill="#EBEBEB"/>
<path id="Vector_2" opacity="0.5" d="M325.4 138.55H273.4C273.4 138.55 285.03 121.71 294.19 121.71C303.35 121.71 306 132.94 306 132.94C306 132.94 312.46 127.7 318.45 128.63C324.44 129.56 325.4 138.55 325.4 138.55Z" fill="#EBEBEB"/>
<path id="Vector_3" opacity="0.5" d="M468.46 110.69H416.46C416.46 110.69 428.09 93.85 437.25 93.85C446.41 93.85 449.12 105.08 449.12 105.08C449.12 105.08 455.58 99.83 461.57 100.77C467.56 101.71 468.46 110.69 468.46 110.69Z" fill="#EBEBEB"/>
<path id="Vector_4" d="M132.89 150.66H31.54C31.54 150.66 45.42 119.66 60.27 117.73C75.12 115.8 82.22 140.73 82.22 140.73C82.22 140.73 91.8 131.9 99.33 131.9C106.86 131.9 112.67 143.52 112.67 143.52C112.67 143.52 127.73 135.59 132.89 150.66Z" fill="#EBEBEB"/>
<path id="Vector_5" opacity="0.5" d="M213.91 84.13H145.45C145.45 84.13 157.21 61.68 170 61.35C182.79 61.02 189.46 78.35 189.46 78.35C189.46 78.35 209.28 62.42 213.91 84.13Z" fill="#EBEBEB"/>
</g>
<g id="freepik--water-2--inject-10">
<path id="Vector_6" d="M43.49 213.48L56.79 305.15L127.56 365.72L159.28 431.72L250.29 477.61L323.22 454.33L367.12 385.16L419.26 345.54L456.51 213.48H43.49Z" fill="#37474F"/>
<path id="Vector_7" d="M139.75 404.45L152.16 434.6L173.22 447.01L145.51 439.92L139.75 404.45Z" fill="#37474F"/>
<path id="Vector_8" d="M394.78 373.22L426.27 350.14L433.8 311.12L432.05 352.91L394.78 373.22Z" fill="#37474F"/>
<path id="Vector_9" d="M163.23 448.83L180.78 459.03H200.73L163.23 448.83Z" fill="#37474F"/>
</g>
<g id="freepik--Iceberg--inject-10">
<path id="Vector_10" d="M123.07 213.48L129.54 238.19L142.96 254.32L163.81 305.56L193.6 320.74L216.12 382.42L250.77 408.98L266.58 443.14L276.91 448.83L289.68 423.22L306.11 334.03L340.14 306.51L343.79 264.76L355.19 260.02L358.32 241.99L376.7 213.48H123.07Z" fill="#8688B8"/>
<path id="Vector_11" opacity="0.2" d="M123.07 213.48L129.54 238.19L142.96 254.32L163.81 305.56L193.6 320.74L216.12 382.42L250.77 408.98L266.58 443.14L276.91 448.83L289.68 423.22L306.11 334.03L340.14 306.51L343.79 264.76L355.19 260.02L358.32 241.99L376.7 213.48H123.07Z" fill="white"/>
<path id="Vector_12" d="M285.78 345.5L276.91 448.83L266.57 443.14L250.77 408.98L216.11 382.42L193.6 320.74L163.81 305.57L142.96 254.33L129.54 238.19L123.07 213.47H205.57L274.63 260.91L259.04 307.58L285.78 345.5Z" fill="#8688B8"/>
<path id="Vector_13" opacity="0.1" d="M129.54 238.19L200.46 233.03L274.63 260.91L205.57 213.47H123.07L129.54 238.19Z" fill="black"/>
<path id="Vector_14" opacity="0.1" d="M259.04 307.58L262.1 343.68L281.71 392.93L285.78 345.5L259.04 307.58Z" fill="black"/>
<path id="Vector_15" d="M343.79 264.76L321.52 274.4L306.11 334.03L331.91 296.46L343.79 264.76Z" fill="#8688B8"/>
<path id="Vector_16" d="M358.32 241.99L306.91 225.18L355.19 260.02L358.32 241.99Z" fill="#8688B8"/>
<path id="Vector_17" opacity="0.1" d="M216.11 382.42L259.05 396.55L250.77 408.98L216.11 382.42Z" fill="black"/>
<path id="Vector_18" opacity="0.3" d="M266.57 443.14L259.05 396.55L250.77 408.98L266.57 443.14Z" fill="white"/>
<path id="Vector_19" opacity="0.1" d="M193.6 320.74L209.21 303.57L142.96 254.33L163.81 305.57L193.6 320.74Z" fill="black"/>
<path id="Vector_20" d="M259.04 307.58L234.77 300.78L262.96 295.84L289.43 305.15L259.04 307.58Z" fill="#8688B8"/>
<path id="Vector_21" opacity="0.2" d="M259.04 307.58L234.77 300.78L262.96 295.84L289.43 305.15L259.04 307.58Z" fill="white"/>
<path id="Vector_22" d="M234.77 300.78L262.96 295.84L289.43 305.15" fill="#8688B8"/>
<path id="Vector_23" opacity="0.1" d="M129.54 238.19L205.57 213.47H123.07L129.54 238.19Z" fill="black"/>
<path id="Vector_24" opacity="0.1" d="M262.1 343.68L285.78 345.5L259.04 307.58L262.1 343.68Z" fill="black"/>
<path id="Vector_25" opacity="0.3" d="M306.91 225.18L321.52 274.4L355.19 260.02L306.91 225.18Z" fill="white"/>
<path id="Vector_26" d="M205.57 213.47L232.84 221.55L284.14 213.48L205.57 213.47Z" fill="#8688B8"/>
<path id="Vector_27" d="M154.5 213.48H376.7L366.06 201.18L361.81 187.55L324.36 163.17L306.91 151.34L284.85 144.41L265.37 107.25L231.08 84.19L215.34 51.17L193.25 65.07L170.31 116.2L152.19 130.18L148.61 152.06L133.19 181.1L140.28 198.31L130.31 207.63L123.07 213.48H154.5Z" fill="#8688B8"/>
<path id="Vector_28" opacity="0.7" d="M154.5 213.48H376.7L366.06 201.18L361.81 187.55L324.36 163.17L306.91 151.34L284.85 144.41L265.37 107.25L231.08 84.19L215.34 51.17L193.25 65.07L170.31 116.2L152.19 130.18L148.61 152.06L133.19 181.1L140.28 198.31L130.31 207.63L123.07 213.48H154.5Z" fill="white"/>
<path id="Vector_29" opacity="0.4" d="M274.63 213.48H123.07L140.28 198.31L133.19 181.1L148.6 152.05L152.19 130.18L170.31 116.2L193.24 65.07L215.34 51.16L195.05 111.4L204.17 128.8L195.05 151.07L207.76 167.7L247.29 179.98L249.89 197.12L274.63 213.48Z" fill="#8688B8"/>
<path id="Vector_30" d="M182.78 115.16L196.58 106.88L215.05 106.48L196.44 114.05L182.78 115.16Z" fill="#8688B8"/>
<path id="Vector_31" opacity="0.7" d="M182.78 115.16L196.58 106.88L215.05 106.48L196.44 114.05L182.78 115.16Z" fill="white"/>
<path id="Vector_32" opacity="0.4" d="M182.78 115.16L215.05 106.48L196.44 114.05L182.78 115.16Z" fill="#8688B8"/>
<path id="Vector_33" opacity="0.7" d="M209.21 213.48L140.28 198.31L123.07 213.48H209.21Z" fill="#8688B8"/>
<path id="Vector_34" opacity="0.7" d="M284.85 144.41L259.05 165.4L306.91 151.34L284.85 144.41Z" fill="white"/>
<path id="Vector_35" opacity="0.4" d="M366.06 201.18L332.56 196.74L298.91 213.48H376.7L366.06 201.18Z" fill="#8688B8"/>
<path id="Vector_36" opacity="0.7" d="M231.08 84.1901L204.17 128.8L265.37 107.25L231.08 84.1901Z" fill="white"/>
<path id="Vector_37" opacity="0.5" d="M215.05 124.97L217.57 139.87L234.77 158.61L221.58 138.23L222.39 122.38L215.05 124.97Z" fill="#8688B8"/>
<path id="Vector_38" opacity="0.7" d="M152.19 130.18L180.04 161.25L182.78 196.74L133.19 181.1L148.6 152.05L152.19 130.18Z" fill="#8688B8"/>
<path id="Vector_39" opacity="0.7" d="M170.31 116.2L195.6 85.1701L193.24 65.0701L170.31 116.2Z" fill="#8688B8"/>
<path id="Vector_40" opacity="0.7" d="M249.89 197.12L247.29 179.98L223.8 192.85L209.21 213.48L249.89 197.12Z" fill="#8688B8"/>
<path id="Vector_41" opacity="0.7" d="M332.56 196.74L361.81 187.55L366.06 201.18L332.56 196.74Z" fill="white"/>
<path id="Vector_42" opacity="0.4" d="M259.05 165.4L278 168.2L306.91 151.34L259.05 165.4Z" fill="#8688B8"/>
<path id="Vector_43" d="M148.6 152.05L180.04 161.25L152.19 130.18L148.6 152.05Z" fill="#8688B8"/>
<path id="Vector_44" d="M209.21 213.48L247.29 179.98L223.8 192.85L209.21 213.48Z" fill="#8688B8"/>
</g>
<g id="freepik--Fishes--inject-10">
<path id="Vector_45" d="M189.92 364.11C190.08 364.2 207.32 364.46 207.69 364.66C208.06 364.86 204.22 368.43 200.6 368.74C195.18 369.21 189.92 364.91 189.92 364.91C189.92 364.91 187.24 366.98 186.61 366.24C185.98 365.5 189.22 364.68 189.22 364.68C189.22 364.68 185.09 364.15 185.41 363C185.73 361.85 189.92 364.11 189.92 364.11Z" fill="white"/>
<path id="Vector_46" d="M178.74 295.93C178.89 295.93 190.81 286.55 191.18 286.5C191.55 286.45 190.89 290.98 188.59 293.19C185.15 296.51 179.18 296.48 179.18 296.48C179.18 296.48 178.49 299.37 177.65 299.21C176.81 299.05 178.57 296.71 178.57 296.71C178.57 296.71 175.47 298.62 175.04 297.71C174.61 296.8 178.74 295.93 178.74 295.93Z" fill="white"/>
<path id="Vector_47" d="M175 372.67C175.11 372.78 189.75 376.67 190 376.94C190.25 377.21 186.25 379.41 183.09 378.94C178.37 378.18 174.81 373.39 174.81 373.39C174.81 373.39 172.09 374.58 171.71 373.81C171.33 373.04 174.26 373.04 174.26 373.04C174.26 373.04 170.87 371.71 171.38 370.8C171.89 369.89 175 372.67 175 372.67Z" fill="white"/>
<path id="Vector_48" d="M118 277.8C118.06 277.85 125.92 279.28 126.07 279.41C126.22 279.54 124.2 280.86 122.52 280.73C120.01 280.53 117.94 278.17 117.94 278.17C117.94 278.17 116.55 278.91 116.32 278.52C116.09 278.13 117.63 278.01 117.63 278.01C117.63 278.01 115.79 277.46 116.02 276.95C116.25 276.44 118 277.8 118 277.8Z" fill="white"/>
<path id="Vector_49" d="M161.43 286.89C161.51 286.89 169.16 284.62 169.35 284.66C169.54 284.7 168.35 286.81 166.79 287.45C164.46 288.45 161.54 287.25 161.54 287.25C161.54 287.25 160.64 288.53 160.26 288.3C159.88 288.07 161.19 287.24 161.19 287.24C161.19 287.24 159.3 287.59 159.28 287.03C159.26 286.47 161.43 286.89 161.43 286.89Z" fill="white"/>
<path id="Vector_50" d="M105.7 287.72C105.95 287.72 117.7 284.44 118.31 284.41C118.92 284.38 116.53 287.74 113.31 289.31C110.09 290.88 105.81 288.15 105.81 288.15C105.81 288.15 102.44 290.3 102.05 289.46C101.66 288.62 104.75 288.04 104.75 288.04C104.75 288.04 101.11 287.62 101.31 286.56C101.51 285.5 105.7 287.72 105.7 287.72Z" fill="white"/>
<path id="Vector_51" d="M196.44 343.06C196.62 343.06 205 340.71 205.44 340.68C205.88 340.65 204.16 343.07 201.88 344.2C199.6 345.33 196.51 343.37 196.51 343.37C196.51 343.37 194.1 344.92 193.83 344.32C193.56 343.72 195.75 343.32 195.75 343.32C195.75 343.32 193.15 343.02 193.29 342.26C193.43 341.5 196.44 343.06 196.44 343.06Z" fill="white"/>
<path id="Vector_52" d="M181.6 282.18C181.8 282.11 190.65 277.26 191.16 277.11C191.67 276.96 190.35 280.11 188.07 282.02C185.79 283.93 181.79 282.5 181.79 282.5C181.79 282.5 179.47 284.89 179 284.28C178.53 283.67 180.91 282.62 180.91 282.62C180.91 282.62 177.91 282.97 177.85 282.08C177.79 281.19 181.6 282.18 181.6 282.18Z" fill="white"/>
<path id="Vector_53" d="M306.28 308.13C306.12 308.13 292.43 301.7 292.06 301.73C291.69 301.76 293.34 306.03 296.06 307.67C300.16 310.13 305.96 308.77 305.96 308.77C305.96 308.77 307.28 311.43 308.05 311.09C308.82 310.75 306.6 308.85 306.6 308.85C306.6 308.85 310.05 310.03 310.25 309C310.45 307.97 306.28 308.13 306.28 308.13Z" fill="white"/>
<path id="Vector_54" d="M396.66 275.87C396.6 275.92 388.66 277.15 388.56 277.27C389.508 278.17 390.763 278.674 392.07 278.68C394.58 278.54 396.72 276.24 396.72 276.24C396.72 276.24 398.08 277.01 398.32 276.63C398.56 276.25 397.02 276.08 397.02 276.08C397.02 276.08 398.88 275.58 398.66 275.08C398.44 274.58 396.66 275.87 396.66 275.87Z" fill="white"/>
<path id="Vector_55" d="M331.66 352.31C331.58 352.31 323.91 350.1 323.72 350.15C323.53 350.2 324.72 352.28 326.3 352.91C328.64 353.86 331.55 352.67 331.55 352.67C331.55 352.67 332.45 353.95 332.83 353.67C333.21 353.39 331.89 352.67 331.89 352.67C331.89 352.67 333.79 353 333.8 352.45C333.81 351.9 331.66 352.31 331.66 352.31Z" fill="white"/>
<path id="Vector_56" d="M353.82 232.86C353.58 232.92 341.47 233.86 340.82 234.06C340.17 234.26 343.63 236.58 347.17 236.96C350.71 237.34 353.81 233.31 353.81 233.31C353.81 233.31 357.71 234.18 357.81 233.26C357.91 232.34 354.81 232.85 354.81 232.85C354.81 232.85 358.08 231.2 357.54 230.28C357 229.36 353.82 232.86 353.82 232.86Z" fill="white"/>
<path id="Vector_57" d="M345.09 374.85C344.89 374.77 335.51 369.38 334.97 369.2C334.43 369.02 335.77 372.47 338.18 374.53C340.59 376.59 344.89 375.19 344.89 375.19C344.89 375.19 347.32 377.79 347.83 377.19C348.34 376.59 345.83 375.37 345.83 375.37C345.83 375.37 349.05 375.81 349.12 374.86C349.19 373.91 345.09 374.85 345.09 374.85Z" fill="white"/>
<path id="Vector_58" d="M296.29 318.83C296.11 318.83 287.43 318.29 286.98 318.36C286.53 318.43 288.72 320.43 291.19 321.06C293.66 321.69 296.26 319.15 296.26 319.15C296.26 319.15 298.94 320.15 299.08 319.52C299.22 318.89 296.99 318.92 296.99 318.92C296.99 318.92 299.47 318.09 299.18 317.38C298.89 316.67 296.29 318.83 296.29 318.83Z" fill="white"/>
<path id="Vector_59" d="M353.56 359.58C353.36 359.65 343.41 361.3 342.91 361.5C342.41 361.7 345.42 363.38 348.38 363.44C351.34 363.5 353.61 359.95 353.61 359.95C353.61 359.95 356.9 360.39 356.89 359.63C356.88 358.87 354.37 359.5 354.37 359.5C354.37 359.5 356.96 357.91 356.44 357.19C355.92 356.47 353.56 359.58 353.56 359.58Z" fill="white"/>
</g>
<g id="freepik--water-1--inject-10">
<path id="Vector_60" d="M33.36 213.48L87.52 213.24L141.68 213.15L250 212.98L358.32 213.15L412.48 213.23L466.64 213.48L412.48 213.72L358.32 213.81L250 213.98L141.68 213.81L87.52 213.72L33.36 213.48Z" fill="#263238"/>
</g>
<g id="freepik--Sun--inject-10">
<path id="Vector_61" opacity="0.6" d="M354.882 115.841C367.025 110.896 372.859 97.043 367.914 84.9002C362.968 72.7575 349.115 66.9229 336.973 71.8684C324.83 76.8139 318.995 90.6667 323.941 102.809C328.886 114.952 342.739 120.787 354.882 115.841Z" fill="#8688B8"/>
<path id="Vector_62" d="M353.215 110.541C362.416 106.522 366.618 95.8059 362.6 86.6044C358.582 77.4029 347.865 73.201 338.664 77.2191C329.462 81.2372 325.26 91.9538 329.279 101.155C333.297 110.357 344.013 114.559 353.215 110.541Z" fill="#8688B8"/>
</g>
<g id="freepik--Birds--inject-10">
<path id="Vector_63" d="M388.81 132.26C388.093 131.892 387.351 131.575 386.59 131.31C385.812 131.017 384.998 130.829 384.17 130.75C383.917 130.729 383.663 130.756 383.42 130.83C383.337 130.86 383.257 130.897 383.18 130.94L383.04 131.05L382.77 131.26C382.45 131.55 382.17 131.85 381.89 132.15C381.35 132.77 380.89 133.41 380.38 134.06L380.98 133.85C380.166 133.621 379.337 133.447 378.5 133.33C378.072 133.274 377.641 133.244 377.21 133.24C376.98 133.221 376.75 133.221 376.52 133.24C376.395 133.263 376.271 133.293 376.15 133.33C376.023 133.378 375.899 133.435 375.78 133.5C375.399 133.758 375.061 134.076 374.78 134.44C374.519 134.76 374.275 135.094 374.05 135.44C373.609 136.147 373.221 136.885 372.89 137.65C373.43 137.02 373.94 136.38 374.49 135.77C374.749 135.466 375.026 135.179 375.32 134.91C375.575 134.642 375.868 134.412 376.19 134.23C376.512 134.124 376.853 134.09 377.19 134.13C377.56 134.13 377.95 134.22 378.34 134.29C379.12 134.43 379.91 134.62 380.67 134.83L381.06 134.94L381.27 134.62C381.72 133.98 382.2 133.35 382.68 132.75C382.912 132.448 383.163 132.161 383.43 131.89L383.62 131.71L383.71 131.63C383.842 131.571 383.985 131.541 384.13 131.54C384.899 131.546 385.665 131.623 386.42 131.77C387.24 132 388 132.11 388.81 132.26Z" fill="#263238"/>
<path id="Vector_64" d="M380.07 155.88C379.118 155.143 378.116 154.475 377.07 153.88C376.013 153.222 374.873 152.707 373.68 152.35C373.312 152.251 372.93 152.217 372.55 152.25C372.423 152.266 372.298 152.299 372.18 152.35L371.93 152.46C371.776 152.532 371.626 152.612 371.48 152.7C370.945 153.004 370.427 153.337 369.93 153.7C368.93 154.44 368.05 155.24 367.14 156.06L368.14 155.93C367.012 155.354 365.846 154.856 364.65 154.44C364.038 154.23 363.414 154.06 362.78 153.93C362.45 153.861 362.116 153.818 361.78 153.8C361.59 153.781 361.399 153.781 361.21 153.8C361.006 153.831 360.805 153.881 360.61 153.95C359.985 154.219 359.408 154.587 358.9 155.04C358.419 155.448 357.962 155.882 357.53 156.34C356.676 157.248 355.893 158.221 355.19 159.25C356.19 158.47 357.1 157.68 358.08 156.95C358.56 156.59 359.08 156.23 359.55 155.95C360.007 155.636 360.505 155.387 361.03 155.21C361.518 155.155 362.012 155.203 362.48 155.35C363.042 155.504 363.593 155.694 364.13 155.92C365.23 156.35 366.34 156.92 367.4 157.4L367.93 157.66L368.34 157.26C369.18 156.45 370.08 155.67 370.96 154.92C371.41 154.54 371.86 154.18 372.31 153.92L372.64 153.71L372.8 153.63C372.8 153.63 372.8 153.63 372.85 153.63C373.065 153.595 373.285 153.595 373.5 153.63C374.63 153.854 375.736 154.189 376.8 154.63C377.85 155 379 155.43 380.07 155.88Z" fill="#263238"/>
<path id="Vector_65" d="M108.24 71.24C107.604 70.7576 106.936 70.3199 106.24 69.93C105.523 69.5147 104.752 69.1985 103.95 68.99C103.699 68.9382 103.441 68.9382 103.19 68.99C103.103 68.997 103.018 69.0208 102.94 69.06L102.78 69.14C102.67 69.19 102.58 69.25 102.49 69.3C102.12 69.54 101.79 69.79 101.49 70.04C100.85 70.56 100.27 71.11 99.68 71.68L100.31 71.57C99.5489 71.2092 98.7637 70.9018 97.96 70.65C97.5469 70.523 97.126 70.4228 96.7 70.35C96.4726 70.3059 96.2416 70.2825 96.01 70.28C95.8835 70.2708 95.7565 70.2708 95.63 70.28C95.4972 70.306 95.3668 70.3428 95.24 70.39C94.8279 70.5851 94.4497 70.845 94.12 71.16C93.806 71.4423 93.5088 71.7428 93.23 72.06C92.6761 72.6845 92.1744 73.3534 91.73 74.06C92.36 73.52 92.97 72.97 93.61 72.47C93.9294 72.2081 94.2632 71.9643 94.61 71.74C94.9171 71.5203 95.2538 71.3452 95.61 71.22C95.9438 71.1691 96.2846 71.1896 96.61 71.28C96.9897 71.3752 97.3637 71.492 97.73 71.63C98.47 71.89 99.22 72.21 99.94 72.54L100.3 72.71L100.57 72.43C101.11 71.87 101.69 71.33 102.26 70.81C102.55 70.55 102.84 70.3 103.14 70.08L103.36 69.94L103.46 69.88C103.602 69.8534 103.748 69.8534 103.89 69.88C104.647 70.0052 105.391 70.2028 106.11 70.47C106.74 70.67 107.48 71 108.24 71.24Z" fill="#263238"/>
<path id="Vector_66" d="M128 68C127.321 67.0018 126.573 66.0528 125.76 65.16C124.952 64.2278 124.024 63.4073 123 62.72C122.678 62.517 122.322 62.3715 121.95 62.29C121.82 62.2793 121.69 62.2793 121.56 62.29H121.29C121.11 62.29 120.96 62.36 120.8 62.39C120.191 62.5387 119.59 62.7189 119 62.93C117.84 63.35 116.75 63.84 115.64 64.36L116.58 64.51C115.676 63.6294 114.714 62.8109 113.7 62.06C113.174 61.6938 112.626 61.3599 112.06 61.06C111.756 60.9002 111.442 60.7599 111.12 60.64C110.94 60.5782 110.756 60.5281 110.57 60.49C110.367 60.4748 110.163 60.4748 109.96 60.49C109.269 60.5572 108.594 60.7362 107.96 61.02C107.37 61.27 106.81 61.56 106.26 61.86C105.178 62.4729 104.145 63.1683 103.17 63.94C104.32 63.49 105.45 63.01 106.6 62.61C107.17 62.4 107.74 62.21 108.32 62.06C108.849 61.8989 109.397 61.8081 109.95 61.79C110.432 61.8822 110.889 62.0766 111.29 62.36C111.779 62.6658 112.25 62.9997 112.7 63.36C113.62 64.1 114.53 64.92 115.38 65.74L115.81 66.15L116.33 65.89C117.33 65.37 118.45 64.89 119.52 64.43C120.042 64.2011 120.576 64.0008 121.12 63.83C121.25 63.83 121.38 63.75 121.5 63.73H121.67C121.67 63.73 121.67 63.73 121.73 63.73C121.947 63.7544 122.157 63.8188 122.35 63.92C123.36 64.4703 124.314 65.1166 125.2 65.85C126.19 66.5 127.1 67.27 128 68Z" fill="#263238"/>
<path id="Vector_67" d="M408.33 150.08C407.645 149.084 406.893 148.135 406.08 147.24C405.267 146.293 404.329 145.462 403.29 144.77C402.969 144.565 402.613 144.419 402.24 144.34C402.114 144.329 401.986 144.329 401.86 144.34H401.59L401.09 144.44C400.46 144.59 399.87 144.78 399.29 144.98C398.14 145.4 397.04 145.89 395.93 146.41L396.87 146.56C395.968 145.677 395.006 144.858 393.99 144.11C393.465 143.727 392.918 143.376 392.35 143.06C392.048 142.897 391.733 142.756 391.41 142.64C391.231 142.576 391.047 142.526 390.86 142.49C390.657 142.475 390.453 142.475 390.25 142.49C389.559 142.557 388.884 142.736 388.25 143.02C387.66 143.27 387.1 143.56 386.55 143.86C385.47 144.475 384.437 145.171 383.46 145.94C384.61 145.49 385.75 145.01 386.9 144.61C387.47 144.4 388.04 144.21 388.61 144.06C389.139 143.899 389.687 143.808 390.24 143.79C390.723 143.88 391.18 144.075 391.58 144.36C392.069 144.666 392.54 145 392.99 145.36C393.91 146.1 394.82 146.92 395.68 147.74L396.1 148.15L396.62 147.89C397.62 147.37 398.75 146.89 399.82 146.43C400.339 146.201 400.869 146.001 401.41 145.83C401.54 145.83 401.67 145.75 401.79 145.73H401.96C401.96 145.73 401.96 145.73 402.03 145.73C402.246 145.756 402.456 145.82 402.65 145.92C403.657 146.475 404.611 147.121 405.5 147.85C406.48 148.55 407.39 149.32 408.33 150.08Z" fill="#263238"/>
</g>
</g>
</svg>
